<mxfile host="app.diagrams.net" modified="2021-05-28T08:23:55.262Z" agent="5.0 (Macintosh; Intel Mac OS X 10_15_7) AppleWebKit/537.36 (KHTML, like Gecko) Chrome/83.0.4103.106 Safari/537.36" etag="IdXhQ_0baKUn_QhVcfxi" version="14.7.2" type="github">
  <diagram name="Page-1" id="e7e014a7-5840-1c2e-5031-d8a46d1fe8dd">
    <mxGraphModel dx="1298" dy="762" grid="1" gridSize="10" guides="1" tooltips="1" connect="1" arrows="1" fold="1" page="1" pageScale="1" pageWidth="1169" pageHeight="826" background="none" math="0" shadow="0">
      <root>
        <mxCell id="0" />
        <mxCell id="1" parent="0" />
        <mxCell id="2" value="客户端" style="swimlane;whiteSpace=wrap" parent="1" vertex="1">
          <mxGeometry x="164.5" y="128" width="280" height="570" as="geometry" />
        </mxCell>
        <mxCell id="swanziePNY3N-hAA2dYP-43" value="解析extra.json 查找是否设置VE解码器接口字段&lt;br&gt;举例“needVEDecoder“" style="rounded=0;whiteSpace=wrap;html=1;" vertex="1" parent="2">
          <mxGeometry x="52.75" y="102" width="130" height="60" as="geometry" />
        </mxCell>
        <mxCell id="swanziePNY3N-hAA2dYP-45" value="YES" style="text;html=1;strokeColor=none;fillColor=none;align=center;verticalAlign=middle;whiteSpace=wrap;rounded=0;" vertex="1" parent="2">
          <mxGeometry x="167.75" y="192" width="40" height="20" as="geometry" />
        </mxCell>
        <mxCell id="swanziePNY3N-hAA2dYP-69" style="edgeStyle=orthogonalEdgeStyle;rounded=0;orthogonalLoop=1;jettySize=auto;html=1;entryX=0.5;entryY=0;entryDx=0;entryDy=0;" edge="1" parent="2" source="swanziePNY3N-hAA2dYP-68" target="swanziePNY3N-hAA2dYP-43">
          <mxGeometry relative="1" as="geometry" />
        </mxCell>
        <mxCell id="swanziePNY3N-hAA2dYP-68" value="“点击道具”" style="rounded=0;whiteSpace=wrap;html=1;" vertex="1" parent="2">
          <mxGeometry x="67.75" y="32" width="100" height="38" as="geometry" />
        </mxCell>
        <mxCell id="swanziePNY3N-hAA2dYP-74" value="“needVEDecoder”" style="rhombus;whiteSpace=wrap;html=1;" vertex="1" parent="2">
          <mxGeometry x="50.25" y="202" width="135" height="60" as="geometry" />
        </mxCell>
        <mxCell id="swanziePNY3N-hAA2dYP-73" style="edgeStyle=orthogonalEdgeStyle;rounded=0;orthogonalLoop=1;jettySize=auto;html=1;exitX=0.5;exitY=1;exitDx=0;exitDy=0;" edge="1" parent="2" source="swanziePNY3N-hAA2dYP-43" target="swanziePNY3N-hAA2dYP-74">
          <mxGeometry relative="1" as="geometry">
            <mxPoint x="180" y="173" as="sourcePoint" />
            <mxPoint x="180.5" y="252" as="targetPoint" />
          </mxGeometry>
        </mxCell>
        <mxCell id="swanziePNY3N-hAA2dYP-79" value="多段拍入口，“点击拍摄”" style="rounded=0;whiteSpace=wrap;html=1;" vertex="1" parent="2">
          <mxGeometry x="65.5" y="285" width="100" height="38" as="geometry" />
        </mxCell>
        <mxCell id="swanziePNY3N-hAA2dYP-88" value="多段拍入口，“点击停止”" style="rounded=0;whiteSpace=wrap;html=1;" vertex="1" parent="2">
          <mxGeometry x="65.5" y="352" width="100" height="38" as="geometry" />
        </mxCell>
        <mxCell id="3" value="VE" style="swimlane;whiteSpace=wrap" parent="1" vertex="1">
          <mxGeometry x="440" y="128" width="280" height="570" as="geometry" />
        </mxCell>
        <mxCell id="swanziePNY3N-hAA2dYP-42" value="解码器接口指针透传Effect" style="rounded=0;whiteSpace=wrap;html=1;" vertex="1" parent="3">
          <mxGeometry x="65.5" y="82" width="144.5" height="58" as="geometry" />
        </mxCell>
        <mxCell id="swanziePNY3N-hAA2dYP-80" value="StartRecord事件透传" style="rounded=0;whiteSpace=wrap;html=1;" vertex="1" parent="3">
          <mxGeometry x="90" y="285" width="100" height="38" as="geometry" />
        </mxCell>
        <mxCell id="swanziePNY3N-hAA2dYP-81" value="StopRecord事件透传" style="rounded=0;whiteSpace=wrap;html=1;" vertex="1" parent="3">
          <mxGeometry x="87.75" y="352" width="100" height="38" as="geometry" />
        </mxCell>
        <mxCell id="4" value="Effect" style="swimlane;whiteSpace=wrap" parent="1" vertex="1">
          <mxGeometry x="720" y="128" width="300" height="570" as="geometry" />
        </mxCell>
        <mxCell id="swanziePNY3N-hAA2dYP-90" value="" style="rounded=0;whiteSpace=wrap;html=1;" vertex="1" parent="4">
          <mxGeometry x="10" y="252" width="140" height="178" as="geometry" />
        </mxCell>
        <mxCell id="swanziePNY3N-hAA2dYP-48" value="bef_effect_set_ve_decoder_handle" style="rounded=0;whiteSpace=wrap;html=1;" vertex="1" parent="4">
          <mxGeometry x="32.75" y="52" width="214.5" height="48" as="geometry" />
        </mxCell>
        <mxCell id="swanziePNY3N-hAA2dYP-62" style="edgeStyle=orthogonalEdgeStyle;rounded=0;orthogonalLoop=1;jettySize=auto;html=1;entryX=0.25;entryY=0;entryDx=0;entryDy=0;exitX=0.25;exitY=1;exitDx=0;exitDy=0;" edge="1" parent="4" source="swanziePNY3N-hAA2dYP-53" target="swanziePNY3N-hAA2dYP-58">
          <mxGeometry relative="1" as="geometry" />
        </mxCell>
        <mxCell id="swanziePNY3N-hAA2dYP-53" value="算法帧" style="rounded=0;whiteSpace=wrap;html=1;" vertex="1" parent="4">
          <mxGeometry x="169.25" y="204" width="70" height="48" as="geometry" />
        </mxCell>
        <mxCell id="swanziePNY3N-hAA2dYP-58" value="IPPP编码（实现）" style="rounded=0;whiteSpace=wrap;html=1;" vertex="1" parent="4">
          <mxGeometry x="167.25" y="333" width="80" height="48" as="geometry" />
        </mxCell>
        <mxCell id="swanziePNY3N-hAA2dYP-63" value="解码（实现）" style="rounded=0;whiteSpace=wrap;html=1;" vertex="1" parent="4">
          <mxGeometry x="63" y="482" width="214.5" height="48" as="geometry" />
        </mxCell>
        <mxCell id="swanziePNY3N-hAA2dYP-66" style="edgeStyle=orthogonalEdgeStyle;rounded=0;orthogonalLoop=1;jettySize=auto;html=1;entryX=0.672;entryY=-0.021;entryDx=0;entryDy=0;entryPerimeter=0;exitX=0.5;exitY=1;exitDx=0;exitDy=0;" edge="1" parent="4" source="swanziePNY3N-hAA2dYP-58" target="swanziePNY3N-hAA2dYP-63">
          <mxGeometry relative="1" as="geometry">
            <mxPoint x="179" y="462" as="targetPoint" />
          </mxGeometry>
        </mxCell>
        <mxCell id="swanziePNY3N-hAA2dYP-84" style="edgeStyle=orthogonalEdgeStyle;rounded=0;orthogonalLoop=1;jettySize=auto;html=1;entryX=0;entryY=0.5;entryDx=0;entryDy=0;" edge="1" parent="4" source="swanziePNY3N-hAA2dYP-82" target="swanziePNY3N-hAA2dYP-58">
          <mxGeometry relative="1" as="geometry" />
        </mxCell>
        <mxCell id="swanziePNY3N-hAA2dYP-82" value="抓帧P" style="rounded=0;whiteSpace=wrap;html=1;" vertex="1" parent="4">
          <mxGeometry x="34" y="285" width="80" height="38" as="geometry" />
        </mxCell>
        <mxCell id="swanziePNY3N-hAA2dYP-83" value="VEDecoderManager&lt;br&gt;&lt;div style=&quot;text-align: left&quot;&gt;&lt;span&gt;::setHandle&lt;/span&gt;&lt;/div&gt;&lt;div style=&quot;text-align: left&quot;&gt;&lt;span&gt;::decodeFrame&lt;/span&gt;&lt;/div&gt;&lt;div style=&quot;text-align: left&quot;&gt;&lt;span&gt;::releaseHandle&lt;/span&gt;&lt;/div&gt;......" style="rounded=0;whiteSpace=wrap;html=1;" vertex="1" parent="4">
          <mxGeometry x="71.38" y="104" width="137.25" height="68" as="geometry" />
        </mxCell>
        <mxCell id="swanziePNY3N-hAA2dYP-41" value="smash" style="swimlane;whiteSpace=wrap" vertex="1" parent="1">
          <mxGeometry x="1020" y="128" width="280" height="570" as="geometry" />
        </mxCell>
        <mxCell id="swanziePNY3N-hAA2dYP-57" value="solve光流" style="rounded=0;whiteSpace=wrap;html=1;" vertex="1" parent="swanziePNY3N-hAA2dYP-41">
          <mxGeometry x="32.75" y="252" width="214.5" height="48" as="geometry" />
        </mxCell>
        <mxCell id="swanziePNY3N-hAA2dYP-46" style="edgeStyle=orthogonalEdgeStyle;rounded=0;orthogonalLoop=1;jettySize=auto;html=1;entryX=0;entryY=0.5;entryDx=0;entryDy=0;exitX=1;exitY=0.5;exitDx=0;exitDy=0;" edge="1" parent="1" source="swanziePNY3N-hAA2dYP-74" target="swanziePNY3N-hAA2dYP-42">
          <mxGeometry relative="1" as="geometry" />
        </mxCell>
        <mxCell id="swanziePNY3N-hAA2dYP-49" style="edgeStyle=orthogonalEdgeStyle;rounded=0;orthogonalLoop=1;jettySize=auto;html=1;entryX=0;entryY=0.5;entryDx=0;entryDy=0;" edge="1" parent="1" source="swanziePNY3N-hAA2dYP-42" target="swanziePNY3N-hAA2dYP-48">
          <mxGeometry relative="1" as="geometry" />
        </mxCell>
        <mxCell id="swanziePNY3N-hAA2dYP-60" style="edgeStyle=orthogonalEdgeStyle;rounded=0;orthogonalLoop=1;jettySize=auto;html=1;entryX=0.5;entryY=0;entryDx=0;entryDy=0;" edge="1" parent="1" source="swanziePNY3N-hAA2dYP-53" target="swanziePNY3N-hAA2dYP-57">
          <mxGeometry relative="1" as="geometry" />
        </mxCell>
        <mxCell id="swanziePNY3N-hAA2dYP-61" style="edgeStyle=orthogonalEdgeStyle;rounded=0;orthogonalLoop=1;jettySize=auto;html=1;" edge="1" parent="1" source="swanziePNY3N-hAA2dYP-57" target="swanziePNY3N-hAA2dYP-58">
          <mxGeometry relative="1" as="geometry" />
        </mxCell>
        <mxCell id="swanziePNY3N-hAA2dYP-86" style="edgeStyle=orthogonalEdgeStyle;rounded=0;orthogonalLoop=1;jettySize=auto;html=1;entryX=0;entryY=0.5;entryDx=0;entryDy=0;" edge="1" parent="1" source="swanziePNY3N-hAA2dYP-80" target="swanziePNY3N-hAA2dYP-82">
          <mxGeometry relative="1" as="geometry" />
        </mxCell>
        <mxCell id="swanziePNY3N-hAA2dYP-87" style="edgeStyle=orthogonalEdgeStyle;rounded=0;orthogonalLoop=1;jettySize=auto;html=1;entryX=0;entryY=0.5;entryDx=0;entryDy=0;" edge="1" parent="1" source="swanziePNY3N-hAA2dYP-79" target="swanziePNY3N-hAA2dYP-80">
          <mxGeometry relative="1" as="geometry" />
        </mxCell>
        <mxCell id="swanziePNY3N-hAA2dYP-89" style="edgeStyle=orthogonalEdgeStyle;rounded=0;orthogonalLoop=1;jettySize=auto;html=1;entryX=0;entryY=0.5;entryDx=0;entryDy=0;" edge="1" parent="1" source="swanziePNY3N-hAA2dYP-88" target="swanziePNY3N-hAA2dYP-81">
          <mxGeometry relative="1" as="geometry" />
        </mxCell>
        <mxCell id="swanziePNY3N-hAA2dYP-91" value="脚本逻辑" style="text;html=1;strokeColor=none;fillColor=none;align=center;verticalAlign=middle;whiteSpace=wrap;rounded=0;" vertex="1" parent="1">
          <mxGeometry x="730" y="380" width="70" height="20" as="geometry" />
        </mxCell>
        <mxCell id="swanziePNY3N-hAA2dYP-93" style="edgeStyle=orthogonalEdgeStyle;rounded=0;orthogonalLoop=1;jettySize=auto;html=1;entryX=-0.014;entryY=0.669;entryDx=0;entryDy=0;entryPerimeter=0;" edge="1" parent="1" source="swanziePNY3N-hAA2dYP-81" target="swanziePNY3N-hAA2dYP-90">
          <mxGeometry relative="1" as="geometry" />
        </mxCell>
      </root>
    </mxGraphModel>
  </diagram>
</mxfile>
